<?xml version="1.0" encoding="utf-8"?>
<!-- Generator: Adobe Illustrator 28.0.0, SVG Export Plug-In . SVG Version: 6.00 Build 0)  -->
<svg version="1.1" id="Camada_1" xmlns="http://www.w3.org/2000/svg" xmlns:xlink="http://www.w3.org/1999/xlink" x="0px" y="0px"
	 viewBox="0 0 473.15 473.15" style="enable-background:new 0 0 473.15 473.15;" xml:space="preserve">
<g>
	<path d="M177.11,200.95c-2.77,0.9-3.58,3.54-4.89,5.63c-21.79,34.77-43.48,69.61-65.3,104.36c-7.16,11.4-12.03,23.12-7.93,36.92
		c4.77,16.08,19.02,27.19,36.07,27.94c15.79,0.7,31.56-9.86,37.57-25.16c6.03-15.36,1.84-30.6-11.56-42.01
		c-0.98-0.83-1.99-1.62-2.95-2.47c-5.95-5.36-7-11.47-2.93-16.98c4.27-5.79,11.04-6.84,17.52-2.19c12.38,8.87,21.06,20.46,25,35.38
		c1.27,4.82,1.46,9.7,1.54,14.62c0.07,4.53,1.93,5.15,5.57,2.88c10.34-6.45,20.72-12.82,31.1-19.19c4.69-2.88,9.35-2.68,13.78,0.6
		c4.07,3.01,5.07,7.25,4.35,11.99c-0.55,3.61-2.71,6.23-5.74,8.11c-27.6,17.13-54.63,35.29-82.96,51.11
		c-41.2,23-92.53-8.34-92.38-55.49c0.05-14.63,6.11-27.31,13.71-39.42c20.1-32.05,40.12-64.14,60.15-96.24
		c15.73-25.2,31.43-50.42,47.14-75.64c24.6-39.48,71.84-59.92,116.71-50.48c46.05,9.69,81.37,46.65,88.25,92.35
		c9.48,62.97-35.6,121.35-98.87,128.05c-56.18,5.94-109.07-32.7-120.6-88.13C178.99,205.22,178.97,202.81,177.11,200.95z
		 M375.69,184.44c-0.01-47.92-38.93-87.11-86.7-87.33c-47.91-0.21-87.43,39.22-87.47,87.27c-0.04,48.19,39.15,87.64,87.08,87.65
		C336.6,272.04,375.71,232.71,375.69,184.44z"/>
	<path d="M291.53,136.2c4.49,0,8.98-0.19,13.46,0.05c6.3,0.34,8.31,3.88,5.28,9.48c-3.25,6.01-6.81,11.85-10.36,17.69
		c-2.42,3.99-1.45,5.93,3.23,5.96c7.26,0.04,14.53,0.15,21.79,0.08c4.66-0.05,8.39,1.15,10.32,5.86c1.89,4.61-0.33,7.9-3.43,10.77
		c-18.97,17.57-37.98,35.08-57.01,52.58c-1.89,1.73-4.11,3.8-6.73,1.83c-2.56-1.92-0.6-4.34,0.37-6.34
		c3.45-7.11,7.06-14.14,10.6-21.21c5.36-10.69,5.36-10.69-6.92-10.72c-4.7-0.01-9.41,0.1-14.1-0.07c-10.57-0.4-15.79-8.69-11-18.18
		c7.31-14.49,15.16-28.71,22.71-43.08c1.81-3.44,4.53-4.85,8.33-4.76c4.48,0.11,8.97,0.03,13.46,0.03
		C291.53,136.18,291.53,136.19,291.53,136.2z"/>
</g>
</svg>
